<svg xmlns="http://www.w3.org/2000/svg" viewBox="0 0 400 400">
  <rect x="0" y="0" width="400" height="400" fill="#FFD700"/>
  
  <rect x="20" y="20" width="360" height="360" fill="#FFFFFF"/>
  
  <line x1="20" y1="60" x2="380" y2="60" stroke="#FFD700" stroke-width="4"/>
  <line x1="20" y1="100" x2="380" y2="100" stroke="#FFD700" stroke-width="2"/>
  <line x1="20" y1="120" x2="380" y2="120" stroke="#FFD700" stroke-width="2"/>
  <line x1="20" y1="140" x2="380" y2="140" stroke="#FFD700" stroke-width="2"/>
  <line x1="20" y1="160" x2="380" y2="160" stroke="#FFD700" stroke-width="2"/>
  <line x1="20" y1="180" x2="380" y2="180" stroke="#FFD700" stroke-width="2"/>
  <line x1="20" y1="200" x2="380" y2="200" stroke="#FFD700" stroke-width="2"/>
  <line x1="20" y1="220" x2="380" y2="220" stroke="#FFD700" stroke-width="2"/>
  <line x1="20" y1="240" x2="380" y2="240" stroke="#FFD700" stroke-width="2"/>
  <line x1="20" y1="260" x2="380" y2="260" stroke="#FFD700" stroke-width="2"/>
  <line x1="20" y1="280" x2="380" y2="280" stroke="#FFD700" stroke-width="2"/>
  <line x1="20" y1="300" x2="380" y2="300" stroke="#FFD700" stroke-width="2"/>
  <line x1="20" y1="320" x2="380" y2="320" stroke="#FFD700" stroke-width="2"/>
  <line x1="20" y1="340" x2="380" y2="340" stroke="#FFD700" stroke-width="2"/>
  
  <rect x="20" y="20" width="360" height="40" fill="#FFD700"/>
  <text x="200" y="45" font-family="Arial" font-size="24" font-weight="bold" text-anchor="middle" fill="#FFFFFF">Notes</text>
</svg>